<svg xmlns="http://www.w3.org/2000/svg" width="70" height="70" viewBox="0 0 512.00045 512"><path d="m449.949219 380.882812c-45.234375-45.238281-97.363281-66.453124-116.429688-47.386718-19.066406 19.066406 2.148438 71.195312 47.382813 116.429687 45.238281 45.238281 97.363281 66.453125 116.429687 47.386719 19.066407-19.066406-2.148437-71.195312-47.382812-116.429688zm0 0" fill="#edd464"/><path d="m497.34375 497.308594c-19.074219 19.066406-71.203125-2.148438-116.433594-47.378906-45.238281-45.238282-66.453125-97.367188-47.390625-116.429688-7.46875 7.46875 23.148438 50.191406 68.390625 95.433594 45.230469 45.230468 87.960938 75.847656 95.433594 68.375zm0 0" fill="#d8951e"/><path d="m413.511719 210.5625c0 112.070312-90.851563 202.917969-202.917969 202.917969-112.070312 0-202.917969-90.847657-202.917969-202.917969 0-112.066406 90.847657-202.917969 202.917969-202.917969 112.066406 0 202.917969 90.851563 202.917969 202.917969zm0 0" fill="#43b9dd"/><path d="m361.371094 210.5625c0 83.273438-67.507813 150.777344-150.777344 150.777344-83.273438 0-150.78125-67.503906-150.78125-150.777344 0-83.269531 67.507812-150.777344 150.78125-150.777344 83.269531 0 150.777344 67.507813 150.777344 150.777344zm0 0" fill="#eaeaea"/><path d="m317.207031 103.949219c-33.871093-33.875-79.851562-48.253907-124.011719-43.15625 32.601563 3.765625 64.210938 18.144531 89.222657 43.15625 58.878906 58.878906 58.878906 154.347656 0 213.230469-25.011719 25.007812-56.621094 39.386718-89.222657 43.152343 44.160157 5.101563 90.140626-9.28125 124.011719-43.152343 58.882813-58.882813 58.882813-154.347657 0-213.230469zm0 0" fill="#fff"/><g fill="#b75129"><path d="m260.351562 245.761719c0 27.480469-22.277343 49.761719-49.757812 49.761719s-49.757812-22.28125-49.757812-49.761719 22.277343-49.757813 49.757812-49.757813 49.757812 22.277344 49.757812 49.757813zm0 0"/><path d="m197.0625 146.304688c0 11.425781-9.265625 20.691406-20.691406 20.691406-11.429688 0-20.691406-9.265625-20.691406-20.691406 0-11.429688 9.261718-20.691407 20.691406-20.691407 11.425781 0 20.691406 9.261719 20.691406 20.691407zm0 0"/><path d="m143.464844 189.621094c0 11.425781-9.261719 20.691406-20.691406 20.691406-11.425782 0-20.691407-9.265625-20.691407-20.691406 0-11.429688 9.265625-20.691406 20.691407-20.691406 11.429687 0 20.691406 9.261718 20.691406 20.691406zm0 0"/><path d="m319.101562 191.242188c0 11.425781-9.265624 20.691406-20.691406 20.691406-11.429687 0-20.691406-9.265625-20.691406-20.691406 0-11.429688 9.261719-20.691407 20.691406-20.691407 11.425782 0 20.691406 9.261719 20.691406 20.691407zm0 0"/><path d="m266.289062 146.941406c0 11.425782-9.265624 20.691406-20.691406 20.691406-11.425781 0-20.691406-9.265624-20.691406-20.691406 0-11.425781 9.265625-20.691406 20.691406-20.691406 11.425782 0 20.691406 9.265625 20.691406 20.691406zm0 0"/></g><path d="m98.550781 98.519531c-61.78125 61.78125-61.78125 162.304688 0 224.085938 30.890625 30.890625 71.464844 46.335937 112.042969 46.335937 40.574219 0 81.152344-15.445312 112.042969-46.335937 61.777343-61.78125 61.777343-162.304688 0-224.085938-61.78125-61.777343-162.308594-61.777343-224.085938 0zm213.230469 10.855469c55.796875 55.796875 55.796875 146.582031 0 202.378906s-146.582031 55.796875-202.378906 0c-55.792969-55.796875-55.792969-146.582031 0-202.378906 27.898437-27.898438 64.542968-41.847656 101.191406-41.847656 36.644531 0 73.289062 13.949218 101.1875 41.847656zm0 0"/><path d="m153.160156 245.761719c0 31.667969 25.761719 57.433593 57.429688 57.433593 31.667968 0 57.433594-25.765624 57.433594-57.433593s-25.765626-57.429688-57.433594-57.429688c-31.667969 0-57.429688 25.761719-57.429688 57.429688zm57.433594-42.082031c23.203125 0 42.082031 18.878906 42.082031 42.082031s-18.878906 42.085937-42.082031 42.085937c-23.207031 0-42.085938-18.882812-42.085938-42.085937s18.878907-42.082031 42.085938-42.082031zm0 0"/><path d="m163.863281 171.761719c3.953125 1.941406 8.203125 2.921875 12.480469 2.921875 3.085938 0 6.183594-.507813 9.1875-1.535156 7.171875-2.445313 12.960938-7.539063 16.300781-14.339844 3.339844-6.800782 3.832031-14.496094 1.382813-21.667969-2.445313-7.167969-7.539063-12.957031-14.339844-16.296875-6.800781-3.34375-14.496094-3.835938-21.664062-1.386719-14.804688 5.050781-22.738282 21.203125-17.6875 36.007813 2.445312 7.167968 7.539062 12.957031 14.339843 16.296875zm8.304688-37.777344c1.375-.46875 2.796875-.703125 4.210937-.703125 1.964844 0 3.917969.449219 5.730469 1.339844 3.121094 1.53125 5.457031 4.1875 6.578125 7.480468 1.125 3.289063.898438 6.820313-.632812 9.941407-1.535157 3.121093-4.191407 5.457031-7.480469 6.578125-3.292969 1.125-6.824219.898437-9.945313-.632813-3.117187-1.535156-5.457031-4.191406-6.578125-7.480469-2.316406-6.792968 1.324219-14.207031 8.117188-16.523437zm0 0"/><path d="m98.976562 174.183594c-4.125 6.355468-5.523437 13.9375-3.945312 21.347656s5.949219 13.761719 12.304688 17.886719c4.757812 3.085937 10.105468 4.558593 15.394531 4.558593 9.296875 0 18.414062-4.554687 23.839843-12.917968 4.125-6.355469 5.527344-13.9375 3.945313-21.347656-1.578125-7.410157-5.949219-13.765626-12.304687-17.886719-6.355469-4.125-13.9375-5.527344-21.347657-3.949219-7.410156 1.582031-13.761719 5.953125-17.886719 12.308594zm12.878907 8.351562c1.890625-2.917968 4.804687-4.921875 8.207031-5.644531.910156-.195313 1.828125-.292969 2.738281-.292969 2.488281 0 4.921875.71875 7.058594 2.101563 2.914063 1.894531 4.921875 4.808593 5.644531 8.207031.726563 3.402344.082032 6.882812-1.808594 9.796875-1.894531 2.917969-4.808593 4.921875-8.210937 5.648437-3.398437.722657-6.878906.082032-9.796875-1.8125-2.914062-1.890624-4.921875-4.804687-5.644531-8.207031-.722657-3.398437-.082031-6.878906 1.8125-9.796875zm0 0"/><path d="m274.289062 206.167969c3.988282 6.445312 10.246094 10.949219 17.621094 12.683593 2.175782.511719 4.371094.765626 6.550782.765626 5.210937 0 10.335937-1.445313 14.878906-4.257813 6.441406-3.984375 10.945312-10.242187 12.679687-17.617187 1.738281-7.375.496094-14.988282-3.488281-21.429688-3.988281-6.441406-10.246094-10.945312-17.621094-12.683594-7.375-1.734375-14.984375-.496094-21.429687 3.492188-6.441407 3.988281-10.945313 10.246094-12.683594 17.621094-1.734375 7.375-.496094 14.984374 3.492187 21.425781zm11.449219-17.910157c.796875-3.382812 2.863281-6.253906 5.820313-8.085937 2.085937-1.289063 4.4375-1.953125 6.828125-1.953125 1 0 2.007812.117188 3.003906.351562 3.386719.796876 6.257813 2.863282 8.085937 5.820313 1.832032 2.957031 2.398438 6.449219 1.601563 9.832031-.796875 3.386719-2.863281 6.253906-5.820313 8.085938-6.101562 3.777344-14.140624 1.882812-17.917968-4.21875-1.828125-2.953125-2.394532-6.445313-1.601563-9.832032zm0 0"/><path d="m235.867188 173.585938c3.175781 1.160156 6.464843 1.738281 9.746093 1.738281 4.078125 0 8.140625-.890625 11.945313-2.660157 6.871094-3.199218 12.085937-8.875 14.683594-15.992187 2.597656-7.117187 2.269531-14.820313-.925782-21.691406-3.195312-6.871094-8.875-12.085938-15.992187-14.683594-14.691407-5.367187-31.007813 2.222656-36.375 16.917969-2.597657 7.117187-2.269531 14.820312.925781 21.6875 3.199219 6.871094 8.875 12.085937 15.992188 14.683594zm-2.496094-31.109376c1.925781-5.273437 6.925781-8.550781 12.238281-8.550781 1.480469 0 2.984375.253907 4.453125.789063 3.265625 1.191406 5.871094 3.585937 7.335938 6.738281 1.46875 3.152344 1.617187 6.6875.425781 9.953125-2.460938 6.742188-9.949219 10.226562-16.691407 7.761719-6.742187-2.460938-10.226562-9.949219-7.761718-16.691407zm0 0"/><path d="m504.867188 446.015625c-9.324219-22.917969-26.898438-47.976563-49.480469-70.558594-22.058594-22.054687-46.683594-39.421875-68.996094-48.835937 22.632813-34.136719 34.792969-74.160156 34.792969-116.058594 0-56.25-21.90625-109.132812-61.679688-148.910156-5.746094-5.746094-11.863281-11.203125-18.183594-16.21875-3.324218-2.636719-8.148437-2.078125-10.785156 1.242187-2.632812 3.320313-2.078125 8.148438 1.242188 10.78125 5.863281 4.652344 11.539062 9.71875 16.875 15.050781 36.875 36.875 57.183594 85.90625 57.183594 138.054688 0 52.152344-20.308594 101.183594-57.183594 138.058594-36.878906 36.878906-85.910156 57.1875-138.058594 57.1875-52.152344 0-101.183594-20.308594-138.058594-57.1875-36.878906-36.875-57.1875-85.90625-57.1875-138.058594 0-52.148438 20.308594-101.179688 57.1875-138.054688 30.414063-30.417968 68.953125-49.566406 111.453125-55.375 41.136719-5.628906 83.753907 2.15625 120.003907 21.917969 3.722656 2.027344 8.382812.65625 10.410156-3.066406 2.03125-3.722656.660156-8.382813-3.0625-10.410156-39.105469-21.320313-85.070313-29.71875-129.433594-23.652344-45.847656 6.269531-87.421875 26.925781-120.226562 59.730469-39.773438 39.777344-61.679688 92.660156-61.679688 148.910156 0 56.253906 21.90625 109.136719 61.679688 148.914062 39.777343 39.773438 92.660156 61.679688 148.914062 61.679688 41.894531 0 81.921875-12.160156 116.058594-34.800781 9.417968 22.324219 26.777344 46.949219 48.828125 68.996093 22.585937 22.585938 47.648437 40.164063 70.5625 49.492188 11.699219 4.757812 22.328125 7.132812 31.511719 7.132812 10.46875 0 19.0625-3.085937 25.210937-9.238281 11.542969-11.546875 12.289063-31.691406 2.101563-56.722656zm-12.957032 45.871094c-6.796875 6.800781-21.40625 6.339843-40.078125-1.261719-21.066406-8.570312-44.328125-24.953125-65.5-46.125-21.832031-21.832031-38.644531-46.070312-46.851562-67.359375 6.980469-5.421875 13.671875-11.3125 20.023437-17.664063 6.351563-6.355468 12.246094-13.046874 17.671875-20.027343 21.277344 8.207031 45.515625 25.023437 67.355469 46.859375 45.066406 45.066406 61.140625 91.8125 47.378906 105.578125zm0 0"/></svg>