<svg xmlns="http://www.w3.org/2000/svg" height="70" viewBox="0 0 511 511.99965" width="70"><path d="m405.175781 58.800781-59.726562 59.726563c6.996093 6.996094 41.269531 41.269531 48.265625 48.265625l59.726562-59.726563c-6.996094-6.996094-41.269531-41.269531-48.265625-48.265625zm0 0" fill="#d1d0cf"/><path d="m371.882812 124.960938c-3.554687-3.554688-3.554687-9.3125 0-12.867188l43.289063-43.292969c-4.527344-4.53125-8.183594-8.183593-9.996094-10l-59.726562 59.726563c6.996093 6.996094 41.269531 41.269531 48.265625 48.265625l9.996094-10c-9.671876-9.671875-23.363282-23.367188-31.828126-31.832031zm0 0" fill="#afafaf"/><path d="m106.8125 382.660156-17.324219 17.324219c-3.171875 3.171875-3.171875 8.308594 0 11.480469l11.289063 11.289062c3.171875 3.171875 8.308594 3.171875 11.480468 0l17.324219-17.324218zm0 0" fill="#f3a334"/><path d="m109.296875 411.464844c-3.171875-3.171875-3.171875-8.3125 0-11.480469l7.417969-7.417969-9.902344-9.90625-17.324219 17.324219c-3.171875 3.167969-3.171875 8.308594 0 11.480469l11.289063 11.289062c3.171875 3.167969 8.3125 3.167969 11.480468 0l4.164063-4.164062zm0 0" fill="#ee911c"/><path d="m214.019531 412.578125c4.839844-4.839844 31.613281-31.613281 35.046875-35.046875l153.320313-153.316406-114.359375-114.359375-153.316406 153.320312c-3.136719 3.136719-30.164063 30.164063-35.046876 35.046875-22.675781 22.675782-22.933593 60.015625 0 82.949219 3.328126 3.328125 28.078126 28.078125 31.40625 31.40625 22.75 22.75 60.101563 22.847656 82.949219 0zm0 0" fill="#e4e3e1"/><path d="m151.070312 412.578125c-3.328124-3.328125-28.078124-28.078125-31.40625-31.40625-22.933593-22.933594-22.675781-60.273437 0-82.949219 4.882813-4.882812 31.910157-31.910156 35.046876-35.046875l143.316406-143.320312-10-10-153.316406 153.320312c-3.136719 3.136719-30.164063 30.164063-35.046876 35.046875-22.675781 22.675782-22.933593 60.015625 0 82.949219 3.328126 3.328125 28.078126 28.078125 31.40625 31.40625 13.917969 13.917969 33.300782 19.34375 51.488282 16.234375-11.5625-1.972656-22.632813-7.378906-31.488282-16.234375zm0 0" fill="#d1d0cf"/><path d="m386.441406 41.046875 84.753906 84.753906c4.410157 4.414063 11.566407 4.414063 15.976563 0l14.421875-14.421875c4.414062-4.414062 4.414062-11.566406 0-15.976562l-84.753906-84.757813c-4.410156-4.410156-11.566406-4.410156-15.976563 0l-14.421875 14.425781c-4.414062 4.410157-4.414062 11.566407 0 15.976563zm0 0" fill="#e4e3e1"/><path d="m406.4375 41.046875c-4.410156-4.410156-4.410156-11.566406 0-15.976563l12.414062-12.414062-2.011718-2.007812c-4.410156-4.414063-11.5625-4.414063-15.976563 0l-14.421875 14.421874c-4.414062 4.414063-4.414062 11.566407 0 15.976563l84.753906 84.753906c4.410157 4.414063 11.566407 4.414063 15.976563 0l2.011719-2.007812zm0 0" fill="#d1d0cf"/><path d="m249.066406 377.535156 35.410156-35.414062 108.632813-108.632813c-11.496094 6.113281-25.898437 3.027344-33.839844-7.632812-1.089843-1.464844-3.230469-1.464844-4.320312 0-10.671875 14.320312-32.070313 14.3125-42.738281 0-1.085938-1.460938-3.226563-1.460938-4.316407-.003907-10.671875 14.324219-32.070312 14.316407-42.738281 0-1.089844-1.460937-3.230469-1.460937-4.316406 0-10.671875 14.324219-32.070313 14.316407-42.738282 0-1.089843-1.460937-3.230468-1.460937-4.320312.003907-10.484375 14.074219-31.425781 14.375-42.300781.546875-78.640625 78.644531-73.53125 73.277344-76.761719 77.46875-.953125 1.496094-14.570312 17.347656-11.785156 42.417968 1.488281 13.3125 7.40625 25.5625 16.726562 34.882813l31.410156 31.40625c27.066407 27.066406 66.308594 15.9375 77.296876 4.945313 4.089843-3.152344 2.246093-1.535157 40.699218-39.988282zm0 0" fill="#ffc964"/><path d="m150.382812 425.34375c10.699219 4.226562 21.789063 4.789062 31.535157 3.347656-11.328125-2.058594-22.15625-7.421875-30.847657-16.113281-3.328124-3.328125-28.078124-28.078125-31.40625-31.40625-22.933593-22.933594-22.675781-60.273437 0-82.949219 4.882813-4.882812 31.910157-31.910156 35.046876-35.046875l28.296874-28.296875c-4.355468-1.640625-8.367187-4.457031-11.527343-8.476562-79.710938 79.714844-80.949219 77.800781-86.519531 96.621094-6.492188 22.113281.988281 45.292968 14.703124 58.148437 32.976563 32.976563 36.546876 38.441406 50.71875 44.171875zm0 0" fill="#f3a334"/><path d="m260.839844 225.851562c1.089844-1.460937 3.230468-1.460937 4.316406 0 10.671875 14.324219 32.074219 14.316407 42.738281 0 1.089844-1.460937 3.230469-1.460937 4.320313.003907 3.238281 4.347656 7.777344 7.667969 13.039062 9.398437l44.085938-44.085937c-6.996094-6.996094-41.269532-41.269531-48.265625-48.265625l-91.699219 91.699218c11.152344 4.574219 24.109375 1.125 31.464844-8.75zm0 0" fill="#d1d0cf"/><path d="m249.375 234.601562 81.699219-81.699218c-4.53125-4.53125-8.1875-8.183594-10-10l-91.699219 91.699218c6.574219 2.699219 13.769531 2.585938 20.082031.03125-.027343-.011718-.054687-.019531-.082031-.03125zm0 0" fill="#afafaf"/><path d="m445 217.878906-150.636719-150.636718c-4.414062-4.414063-11.664062-4.316407-16.199219.21875l-8.625 8.625c-4.53125 4.53125-4.628906 11.785156-.21875 16.195312l150.640626 150.640625c4.410156 4.410156 11.660156 4.3125 16.195312-.21875l8.625-8.625c4.535156-4.535156 4.632812-11.785156.21875-16.199219zm0 0" fill="#72bdf6"/><path d="m289.320312 92.28125c-4.414062-4.410156-4.316406-11.660156.21875-16.195312l6.832032-6.835938-2.007813-2.007812c-4.414062-4.414063-11.664062-4.316407-16.199219.21875l-8.625 8.625c-4.53125 4.53125-4.628906 11.785156-.21875 16.195312l150.640626 150.640625c4.410156 4.410156 11.664062 4.3125 16.195312-.21875l1.792969-1.789063zm0 0" fill="#4b98d4"/><g fill="#a0634a"><path d="m241.839844 404.230469c0 10.675781-8.65625 19.328125-19.332032 19.328125-10.675781 0-19.328124-8.652344-19.328124-19.328125s8.652343-19.332031 19.328124-19.332031c10.675782 0 19.332032 8.65625 19.332032 19.332031zm0 0"/><path d="m393.109375 404.230469c0 10.675781-8.652344 19.328125-19.328125 19.328125s-19.332031-8.652344-19.332031-19.328125 8.65625-19.332031 19.332031-19.332031 19.328125 8.65625 19.328125 19.332031zm0 0"/><path d="m343.902344 433.070312c-11.808594-20.453124-33.472656-34.503906-52.933594-30.257812-43.371094 8.601562-65.4375 77.242188-31.121094 97.054688 9.179688 5.300781 20.328125 5.25 31.089844.886718 4.613281-1.871094 9.804688-1.871094 14.417969 0 10.761719 4.363282 21.910156 4.414063 31.085937-.886718 19.0625-11.007813 22.40625-40.914063 7.460938-66.796876zm0 0"/><path d="m354.667969 360.433594c0 12.949218-10.496094 23.441406-23.441407 23.441406-12.949218 0-23.441406-10.492188-23.441406-23.441406 0-12.945313 10.492188-23.441406 23.441406-23.441406 12.945313 0 23.441407 10.496093 23.441407 23.441406zm0 0"/><path d="m288.503906 360.433594c0 12.949218-10.496094 23.441406-23.441406 23.441406s-23.441406-10.492188-23.441406-23.441406c0-12.945313 10.496094-23.441406 23.441406-23.441406s23.441406 10.496093 23.441406 23.441406zm0 0"/></g><path d="m233.449219 388.300781c-3.109375-2.140625-6.878907-3.402343-10.941407-3.402343-10.675781 0-19.328124 8.65625-19.328124 19.332031s8.652343 19.328125 19.328124 19.328125c4.0625 0 7.828126-1.257813 10.941407-3.402344-11.183594-7.695312-11.171875-24.164062 0-31.855469zm0 0" fill="#915039"/><path d="m384.722656 388.300781c-3.113281-2.140625-6.878906-3.402343-10.941406-3.402343-10.675781 0-19.332031 8.65625-19.332031 19.332031 0 15.585937 17.527343 24.703125 30.273437 15.929687-11.1875-7.699218-11.175781-24.167968 0-31.859375zm0 0" fill="#915039"/><path d="m281.730469 499.867188c-32.777344-18.925782-14.34375-83.90625 27.4375-96.128907-22.679688-6.765625-45.042969 9-56.78125 29.332031-14.945313 25.882813-11.605469 55.789063 7.460937 66.796876 8.015625 4.628906 17.539063 5.175781 26.992188 2.332031-1.757813-.613281-3.464844-1.382813-5.109375-2.332031zm0 0" fill="#915039"/><path d="m329.667969 360.433594c0-8.992188 5.066406-16.789063 12.5-20.722656-3.269531-1.726563-6.988281-2.71875-10.941407-2.71875-12.945312 0-23.441406 10.496093-23.441406 23.441406 0 12.949218 10.492188 23.441406 23.441406 23.441406 3.953126 0 7.671876-.988281 10.941407-2.714844-7.429688-3.933594-12.5-11.734375-12.5-20.726562zm0 0" fill="#915039"/><path d="m276.003906 339.710938c-3.265625-1.726563-6.984375-2.71875-10.941406-2.71875-12.945312 0-23.441406 10.496093-23.441406 23.441406 0 12.949218 10.496094 23.441406 23.441406 23.441406 3.953125 0 7.675781-.988281 10.941406-2.714844-16.65625-8.816406-16.632812-32.648437 0-41.449218zm0 0" fill="#915039"/><path d="m374.113281 431.375c14.816407 0 26.867188-12.050781 26.867188-26.867188 0-14.8125-12.050781-26.863281-26.867188-26.863281-14.8125 0-26.863281 12.050781-26.863281 26.863281 0 14.816407 12.050781 26.867188 26.863281 26.867188zm0-38.734375c6.546875 0 11.867188 5.324219 11.867188 11.867187 0 6.546876-5.320313 11.867188-11.867188 11.867188-6.542969 0-11.867187-5.320312-11.867187-11.867188 0-6.542968 5.324218-11.867187 11.867187-11.867187zm0 0"/><path d="m331.480469 329.648438c-17.085938 0-30.984375 13.898437-30.984375 30.984374 0 17.085938 13.898437 30.984376 30.984375 30.984376 17.085937 0 30.984375-13.898438 30.984375-30.984376 0-17.085937-13.898438-30.984374-30.984375-30.984374zm0 46.96875c-8.816407 0-15.988281-7.171876-15.988281-15.984376 0-8.816406 7.171874-15.984374 15.988281-15.984374 8.8125 0 15.984375 7.167968 15.984375 15.984374 0 8.8125-7.171875 15.984376-15.984375 15.984376zm0 0"/><path d="m478.578125 61.917969c-2.929687-2.929688-7.675781-2.929688-10.605469 0-2.929687 2.929687-2.929687 7.675781 0 10.605469 30.707032 30.707031 29.445313 28.851562 29.445313 31.019531 0 2.09375.128906 1.445312-15.535157 17.105469-1.480468 1.484374-3.886718 1.488281-5.371093 0-91.265625-91.261719-85.867188-85.199219-85.867188-87.4375 0-.589844.144531-1.71875 1.113281-2.6875 15.679688-15.683594 15.019532-15.535157 17.105469-15.535157.589844 0 1.71875.144531 2.6875 1.113281l31.675781 31.675782c2.929688 2.925781 7.675782 2.925781 10.605469 0 2.929688-2.929688 2.929688-7.679688 0-10.605469l-31.675781-31.675781c-7.328125-7.328125-19.253906-7.328125-26.585938 0l-14.421874 14.421875c-7.328126 7.332031-7.328126 19.257812 0 26.585937l12.941406 12.941406-48.628906 48.628907-45.882813-45.882813c-7.332031-7.328125-19.257813-7.328125-26.585937 0l-8.394532 8.394532c-7.328125 7.332031-7.332031 19.257812-.003906 26.585937l12.839844 12.839844c-.128906.125-182.769532 182.769531-182.644532 182.640625-13.480468 13.742187-19.722656 29.910156-19.722656 47.195312 0 17.25 6.515625 33.4375 18.34375 45.769532l-9.214844 9.214843c-6.089843 6.09375-6.089843 16 0 22.089844l.339844.339844-81.839844 81.84375c-2.925781 2.929687-2.925781 7.675781 0 10.605469 2.933594 2.929687 7.679688 2.925781 10.605469 0l81.84375-81.84375.339844.34375c6.089844 6.085937 16 6.085937 22.089844 0l9.214843-9.21875c12.667969 12.144531 29.183594 18.355468 45.789063 18.355468 12.285156 0 24.601563-3.394531 35.429687-10.269531 17.796876 11.511719 41.414063-1.335937 41.414063-22.570313 0-4.765624-1.25-9.238281-3.4375-13.125l3.855469-3.851562c27.167968 15.566406 57.898437-14.9375 42.25-42.25 19.726562-19.726562 97.933594-97.933594 110.308594-110.308594l12.835937 12.839844c7.347656 7.34375 19.234375 7.34375 26.585937 0l8.394532-8.398438c7.34375-7.34375 7.347656-19.234374 0-26.582031l-45.882813-45.886719 48.628907-48.628906 12.941406 12.941406c7.328125 7.328126 19.257812 7.328126 26.585937 0l14.421875-14.421874c7.328125-7.328126 7.328125-19.257813 0-26.585938zm-190.539063 58.699219 22.441407 22.4375-82.417969 82.421874c-1.46875-1.101562-2.796875-2.425781-3.933594-3.949218-4.085937-5.488282-12.261718-5.484375-16.347656 0-6.164062 8.273437-17.332031 9.929687-25.472656 4.824218zm33.046876 33.042968 37.660156 37.660156-35.121094 35.121094c-2.144531-1.304687-3.976562-3.027344-5.386719-4.917968-4.09375-5.496094-12.269531-5.46875-16.34375 0-7.699219 10.335937-23.0625 10.269531-30.710937 0-4.117188-5.519532-12.304688-5.417969-16.34375 0-.847656 1.484374-4.097656 4.5625-7.765625 6.152343zm-214.117188 263.941406c-.238281.242188-.636719.242188-.875 0-8.613281-8.613281-2.652344-2.652343-11.289062-11.289062-.242188-.238281-.242188-.632812 0-.871094l9.191406-9.191406 12.164062 12.164062zm103.722656-13.09375c0-10.039062 11.675782-15.414062 19.324219-9.21875 2.65625 2.160157 4.410156 5.488282 4.410156 9.21875 0 15.457032-23.734375 15.941407-23.734375 0zm41.464844-34.65625c-9.496094-13.402343 5.128906-30.695312 19.898438-23.636718 5.582031 2.679687 9.125 8.277344 9.125 14.417968 0 15.355469-19.875 22.027344-29.023438 9.21875zm29.574219-35.421874c-27.25-17.363282-60.585938 14.75-42.742188 42.738281l-3.6875 3.6875c-22.195312-12.019531-47.902343 11.058593-37.222656 34.714843-19.75 11.367188-45.210937 8.339844-61.691406-8.140624l-31.40625-31.410157c-9.617188-9.613281-14.914063-22.460937-14.914063-36.171875 0-11.359375 3.648438-22.117187 10.363282-30.945312l5.53125 5.527344c2.929687 2.929687 7.679687 2.929687 10.605468 0 2.929688-2.929688 2.929688-7.675782 0-10.605469l-5.867187-5.867188 16.316406-16.316406 5.871094 5.867187c2.929687 2.929688 7.675781 2.925782 10.605469 0 2.925781-2.929687 2.925781-7.675781 0-10.605468l-5.867188-5.867188 16.316406-16.316406 5.867188 5.867188c2.929687 2.925781 7.675781 2.925781 10.605468 0 2.929688-2.929688 2.929688-7.679688 0-10.605469l-5.867187-5.871094 6.996094-6.992187c12.945312 10.074218 31.996093 9.605468 44.410156-2.265626 13.097656 12.539063 33.980469 12.519532 47.058594.003907 13.085937 12.523437 33.949219 12.535156 47.054687-.003907 13.082032 12.523438 33.945313 12.550782 47.054688.003907 4.464844 4.273437 9.878906 7.160156 15.652344 8.53125zm106.988281-106.992188c-8.210938 3.855469-17.925781 1.46875-23.421875-5.910156-2.65625-3.566406-7.65625-5.320313-12.351563-3.195313l16.40625-16.40625 22.441407 22.441407zm50.890625-4.003906c1.480469 1.484375 1.480469 3.894531 0 5.375l-8.394531 8.394531c-1.480469 1.480469-3.894532 1.480469-5.375 0-18.003906-18.003906-132.507813-132.507813-150.636719-150.636719-1.480469-1.480468-1.480469-3.890625 0-5.375l8.394531-8.394531c1.480469-1.480469 3.894532-1.480469 5.375 0 5.332032 5.335937 143.285156 143.289063 150.636719 150.636719zm-45.882813-67.09375-37.660156-37.660156 48.628906-48.628907 37.660157 37.660157zm0 0"/><path d="m289.621094 395.746094c-42.980469 8.589844-70.824219 71.058594-42.8125 103.246094 11.390625 13.089843 29.007812 16.515624 47.121094 9.171874 2.800781-1.136718 6.011718-1.132812 8.8125 0 25.910156 10.503907 47.792968-1.601562 55.457031-23.800781 1.351562-3.914062-.726563-8.1875-4.640625-9.535156-3.917969-1.355469-8.1875.726563-9.535156 4.640625-2.519532 7.292969-7.199219 12.808594-13.183594 15.527344-6.371094 2.894531-14.136719 2.644531-22.464844-.730469-6.472656-2.625-13.605469-2.625-20.078125 0-12.261719 4.972656-22.976563 3.152344-30.175781-5.117187-19.960938-22.9375 1.660156-71.714844 34.625-78.730469 15.175781-3.316407 34.082031 7.933593 44.941406 26.738281 2.285156 3.960938 4.144531 8.050781 5.519531 12.148438 1.320313 3.925781 5.570313 6.042968 9.496094 4.726562 3.925781-1.320312 6.042969-5.570312 4.722656-9.496094-1.691406-5.046875-3.964843-10.050781-6.75-14.878906-14.242187-24.671875-39.335937-38.605469-61.054687-33.910156zm0 0"/></svg>